<?xml version="1.0" standalone="no"?>
<!DOCTYPE svg PUBLIC "-//W3C//DTD SVG 20010904//EN"
 "http://www.w3.org/TR/2001/REC-SVG-20010904/DTD/svg10.dtd">
<svg version="1.0" xmlns="http://www.w3.org/2000/svg"
 width="2037.000000pt" height="2037.000000pt" viewBox="0 0 2037.000000 2037.000000"
 preserveAspectRatio="xMidYMid meet">
<metadata>
Created by potrace 1.14, written by Peter Selinger 2001-2017
</metadata>
<g transform="translate(0.000000,2037.000000) scale(0.100000,-0.100000)"
fill="#000000" stroke="none">
<path d="M10157 18528 c-68 -92 -223 -316 -289 -418 -201 -310 -245 -437 -255
-732 -3 -98 -8 -178 -10 -178 -38 0 -343 75 -428 106 -11 4 16 -31 61 -77 163
-170 237 -272 350 -484 60 -112 81 -142 159 -220 151 -153 268 -215 416 -223
137 -7 241 32 378 142 93 75 161 162 220 284 93 188 189 320 365 500 44 45 78
82 75 82 -3 0 -38 -11 -78 -25 -82 -29 -252 -70 -322 -79 l-46 -5 -6 162 c-11
323 -61 442 -393 939 l-172 259 -25 -33z"/>
<path d="M7707 18278 c-195 -244 -398 -527 -524 -733 -446 -729 -542 -1302
-298 -1779 73 -144 176 -278 335 -437 159 -159 319 -289 738 -596 478 -352
722 -560 892 -761 278 -329 415 -609 488 -997 15 -82 17 -252 19 -1922 3
-1440 6 -1833 16 -1833 6 0 77 15 157 33 l145 32 6 1760 c5 1518 8 1798 23
2035 21 328 25 886 7 1080 -54 600 -193 917 -566 1285 -146 144 -256 233 -560
448 -529 375 -700 515 -829 677 -130 164 -210 339 -247 540 -15 84 -15 322 0
430 26 187 107 462 199 683 23 53 39 97 37 97 -2 0 -19 -19 -38 -42z"/>
<path d="M12652 18223 c92 -221 172 -496 199 -683 17 -123 15 -348 -5 -451
-36 -192 -113 -356 -242 -519 -129 -162 -300 -302 -829 -677 -304 -215 -414
-304 -560 -448 -373 -368 -512 -685 -566 -1285 -18 -194 -14 -752 7 -1080 15
-237 18 -517 23 -2035 l6 -1760 145 -32 c80 -18 151 -33 157 -33 10 0 13 393
16 1833 2 1670 4 1840 19 1922 73 388 210 668 488 997 170 201 414 409 892
761 147 108 341 254 430 324 201 156 426 379 526 519 307 431 329 885 72 1490
-93 220 -252 495 -447 773 -112 159 -345 465 -363 476 -5 3 9 -38 32 -92z"/>
<path d="M6328 17356 c-669 -867 -968 -1520 -968 -2109 0 -279 63 -512 202
-747 90 -152 172 -255 333 -416 219 -220 440 -391 890 -686 577 -379 767 -510
950 -655 107 -85 335 -300 415 -393 151 -173 269 -366 326 -534 55 -160 54
-119 54 -1858 0 -885 3 -1608 8 -1608 4 0 20 42 35 93 46 149 124 338 166 402
38 57 137 160 228 235 l43 35 1 1520 c1 1357 -1 1535 -16 1660 -75 634 -323
1126 -794 1578 -165 157 -315 279 -717 584 -197 149 -402 307 -454 351 -303
253 -497 486 -625 748 -238 487 -230 1056 27 1832 27 84 48 155 47 156 -2 2
-70 -83 -151 -188z"/>
<path d="M13880 17544 c0 -4 24 -82 54 -173 317 -964 248 -1617 -230 -2198
-157 -192 -320 -332 -828 -716 -402 -305 -552 -427 -717 -584 -471 -452 -719
-944 -794 -1578 -15 -125 -17 -303 -16 -1660 l1 -1520 28 -23 c243 -208 281
-266 389 -594 26 -81 51 -147 56 -148 4 0 7 723 7 1608 0 1738 -1 1698 53
1857 76 221 211 419 452 661 277 278 411 378 1240 922 450 295 671 466 890
686 161 161 243 264 333 416 139 235 202 468 202 747 0 591 -307 1259 -977
2121 -79 101 -143 180 -143 176z"/>
<path d="M5093 16078 c-494 -714 -794 -1358 -902 -1938 -64 -347 -52 -710 33
-1001 190 -650 735 -1150 1567 -1437 307 -106 629 -171 975 -197 355 -26 457
-41 584 -81 78 -24 178 -82 216 -125 96 -107 179 -325 203 -534 7 -59 11 -593
11 -1568 l0 -1479 33 7 c125 26 270 91 370 164 l48 36 -4 1610 c-3 1423 -5
1628 -20 1765 -47 431 -112 638 -264 838 -149 195 -416 371 -1103 727 -574
297 -854 466 -1114 673 -416 331 -646 680 -735 1118 -85 414 -15 945 196 1498
18 49 32 91 29 93 -2 2 -57 -74 -123 -169z"/>
<path d="M15140 16246 c0 -2 15 -44 34 -93 172 -451 253 -903 226 -1259 -42
-551 -278 -968 -766 -1356 -260 -207 -540 -376 -1114 -673 -687 -356 -954
-532 -1103 -727 -152 -200 -217 -407 -264 -838 -15 -137 -17 -342 -20 -1765
l-4 -1610 48 -36 c100 -73 245 -138 371 -164 l32 -7 0 1479 c0 975 4 1509 11
1568 24 209 107 427 203 534 38 43 138 101 216 125 127 40 229 55 584 81 1193
89 2166 665 2486 1471 135 338 166 749 89 1164 -109 581 -408 1224 -901 1938
-108 155 -128 181 -128 168z"/>
<path d="M9996 15980 c-212 -34 -340 -103 -340 -185 0 -69 101 -131 270 -167
212 -44 523 -21 669 51 80 39 109 71 109 118 0 68 -99 132 -263 169 -80 18
-362 27 -445 14z"/>
<path d="M3887 13038 c-31 -175 -33 -818 -3 -1055 88 -711 314 -1205 714
-1566 351 -317 872 -497 1322 -458 63 6 192 18 286 26 157 15 177 15 233 1
168 -43 303 -223 329 -438 7 -52 5 -120 -4 -224 -103 -1134 77 -1955 563
-2560 557 -691 1545 -1058 2853 -1058 338 0 535 13 825 55 1144 163 1906 639
2305 1439 275 549 367 1235 286 2124 -9 104 -11 172 -4 224 26 215 161 395
329 438 56 14 76 14 233 -1 94 -8 223 -20 286 -26 450 -39 971 141 1322 458
400 361 626 856 714 1566 22 177 29 598 14 838 -17 275 -17 277 -64 143 -148
-422 -344 -757 -599 -1021 -175 -181 -325 -295 -531 -405 -279 -150 -497 -214
-1016 -302 -515 -87 -707 -136 -890 -224 -175 -85 -288 -224 -339 -417 -55
-211 -66 -401 -55 -955 12 -613 10 -1159 -5 -1315 -59 -636 -210 -1036 -505
-1343 -382 -396 -959 -602 -1986 -708 -279 -29 -511 -21 -920 32 -685 88
-1181 255 -1525 512 -110 82 -268 249 -344 362 -188 282 -295 638 -342 1145
-15 157 -17 695 -5 1310 11 559 0 748 -55 960 -51 193 -164 332 -339 417 -183
88 -375 137 -890 224 -519 88 -737 152 -1016 302 -206 110 -356 224 -531 405
-252 261 -441 581 -590 997 -24 68 -46 126 -47 128 -2 1 -6 -12 -9 -30z"/>
<path d="M14878 5155 c-249 -47 -442 -148 -599 -312 -221 -231 -275 -513 -146
-758 45 -84 165 -202 252 -247 39 -19 133 -54 210 -76 171 -50 261 -87 367
-149 154 -91 244 -198 255 -305 14 -140 -101 -251 -320 -309 -99 -27 -299 -35
-440 -19 -98 11 -121 10 -180 -4 -117 -27 -218 -110 -260 -211 -15 -37 -37
-111 -37 -127 0 -9 137 -50 255 -77 158 -35 297 -51 456 -51 234 0 404 34 574
114 115 55 188 105 271 186 171 167 254 355 254 574 0 187 -53 327 -170 450
-82 86 -120 108 -305 176 -428 157 -685 355 -685 528 0 49 3 56 43 96 83 83
222 111 502 101 154 -6 201 -4 248 8 68 18 135 55 178 100 34 35 85 133 95
183 l6 30 -104 32 c-185 58 -277 73 -468 78 -125 2 -197 -1 -252 -11z"/>
<path d="M7218 5143 l-68 -4 0 -1301 0 -1301 80 6 c150 12 248 47 325 118 85
79 79 19 85 863 l5 750 450 -744 c248 -410 470 -772 495 -805 102 -135 236
-200 415 -199 55 1 110 4 123 8 l22 7 0 1296 0 1295 -122 -4 c-93 -4 -136 -10
-176 -26 -69 -27 -135 -81 -169 -140 l-28 -47 -5 -751 -5 -751 -465 770 c-310
514 -482 788 -517 826 -97 106 -228 146 -445 134z"/>
<path d="M9648 5143 l-68 -4 0 -1301 0 -1301 83 6 c192 15 308 71 378 183 l24
39 5 757 5 757 460 -761 c458 -757 519 -850 605 -909 111 -76 263 -103 423
-73 l27 6 0 1294 0 1294 -95 0 c-191 0 -294 -43 -373 -158 l-37 -54 -5 -751
-5 -750 -465 769 c-474 784 -516 848 -605 900 -75 43 -210 65 -357 57z"/>
<path d="M6445 5115 c-160 -25 -255 -80 -309 -175 l-31 -55 -6 -735 c-4 -480
-10 -751 -17 -781 -42 -176 -135 -303 -268 -369 -234 -115 -485 -2 -586 262
-40 107 -41 126 -47 873 l-6 730 -24 47 c-40 82 -115 143 -212 173 -33 10
-108 19 -195 22 l-141 6 4 -759 c5 -1014 10 -1085 91 -1287 177 -439 667 -673
1187 -567 380 78 677 339 768 675 32 118 37 248 37 1103 l0 852 -82 -1 c-46
-1 -119 -7 -163 -14z"/>
<path d="M12070 3835 l0 -1295 591 0 c644 0 650 0 768 58 137 68 205 172 236
365 l6 37 -511 0 -510 0 0 335 0 335 228 0 c238 0 274 5 361 50 58 29 119 95
148 158 23 48 52 176 53 230 l0 22 -395 0 -395 0 0 270 0 270 333 0 332 0 71
40 c146 81 239 211 251 350 l6 70 -787 0 -786 0 0 -1295z"/>
<path d="M7255 2100 c-79 -24 -120 -126 -75 -183 27 -34 75 -58 162 -81 76
-20 108 -45 108 -85 0 -63 -95 -100 -173 -67 -29 11 -43 26 -55 56 -15 35 -21
40 -49 40 -37 0 -41 -12 -19 -63 18 -43 62 -82 110 -97 53 -17 147 -7 190 19
62 39 83 118 46 178 -23 39 -55 56 -150 82 -90 25 -120 44 -120 75 0 40 31 67
83 73 59 7 102 -10 117 -48 10 -24 18 -29 47 -29 33 0 35 1 28 28 -10 41 -32
70 -67 88 -38 20 -140 27 -183 14z"/>
<path d="M8695 2100 c-79 -24 -120 -126 -75 -183 27 -34 75 -58 162 -81 76
-20 108 -45 108 -85 0 -63 -95 -100 -173 -67 -29 11 -43 26 -55 56 -15 35 -21
40 -49 40 -37 0 -41 -12 -19 -63 18 -43 62 -82 110 -97 53 -17 147 -7 190 19
62 39 83 118 46 178 -23 39 -55 56 -150 82 -90 25 -120 44 -120 75 0 40 31 67
83 73 59 7 102 -10 117 -48 10 -24 18 -29 47 -29 33 0 35 1 28 28 -10 41 -32
70 -67 88 -38 20 -140 27 -183 14z"/>
<path d="M10316 2098 c-21 -6 -57 -28 -81 -52 -94 -90 -99 -268 -11 -364 43
-48 95 -67 182 -67 70 0 88 4 140 30 l59 31 3 92 3 92 -101 0 -100 0 0 -30 0
-30 65 0 65 0 0 -44 c0 -41 -3 -45 -37 -62 -99 -47 -208 -18 -251 66 -20 38
-23 56 -19 112 7 111 56 168 149 175 66 5 117 -19 138 -64 15 -33 41 -42 70
-23 13 8 12 15 -9 54 -42 81 -149 114 -265 84z"/>
<path d="M12105 2100 c-79 -24 -120 -126 -75 -183 27 -34 75 -58 162 -81 76
-20 108 -45 108 -85 0 -63 -95 -100 -173 -67 -29 11 -43 26 -55 56 -15 35 -21
40 -49 40 -37 0 -41 -12 -19 -63 18 -43 62 -82 110 -97 53 -17 147 -7 190 19
62 39 83 118 46 178 -23 39 -55 56 -150 82 -90 25 -120 44 -120 75 0 40 31 67
83 73 59 7 102 -10 117 -48 10 -24 18 -29 47 -29 33 0 35 1 28 28 -10 41 -32
70 -67 88 -38 20 -140 27 -183 14z"/>
<path d="M15486 2098 c-21 -6 -57 -28 -81 -52 -94 -90 -99 -268 -11 -364 43
-48 95 -67 182 -67 70 0 88 4 140 30 l59 31 3 92 3 92 -101 0 -100 0 0 -30 0
-30 65 0 65 0 0 -44 c0 -41 -3 -45 -37 -62 -99 -47 -208 -18 -251 66 -20 38
-23 56 -19 112 7 111 56 168 149 175 66 5 117 -19 138 -64 15 -33 41 -42 70
-23 13 8 12 15 -9 54 -42 81 -149 114 -265 84z"/>
<path d="M4612 1913 c4 -218 11 -242 88 -280 91 -47 221 -19 265 57 18 31 20
56 23 223 l4 187 -35 0 -35 0 -4 -185 -3 -185 -28 -27 c-24 -24 -35 -28 -87
-28 -52 0 -63 4 -87 28 l-28 27 -3 185 -3 185 -35 0 -36 0 4 -187z"/>
<path d="M5100 1860 l0 -240 35 0 35 0 0 178 0 177 118 -177 c117 -177 117
-178 155 -178 l37 0 0 240 0 240 -35 0 -35 0 0 -177 0 -178 -118 177 c-117
177 -117 178 -154 178 l-38 0 0 -240z"/>
<path d="M5590 1860 l0 -240 35 0 35 0 0 240 0 240 -35 0 -35 0 0 -240z"/>
<path d="M5720 2096 c0 -4 122 -324 177 -463 3 -8 23 -13 48 -13 25 0 45 5 48
13 55 139 177 459 177 463 0 3 -16 4 -36 2 l-37 -3 -76 -207 -76 -206 -76 206
-76 207 -37 3 c-20 2 -36 1 -36 -2z"/>
<path d="M6220 1860 l0 -240 180 0 180 0 0 30 0 30 -145 0 -145 0 0 80 0 80
130 0 130 0 0 30 0 30 -130 0 -130 0 0 70 0 70 140 0 140 0 0 30 0 30 -175 0
-175 0 0 -240z"/>
<path d="M6670 1860 l0 -240 35 0 35 0 0 105 0 105 58 0 c35 0 66 -6 79 -15
12 -8 47 -55 78 -105 56 -89 57 -90 96 -90 30 0 38 3 33 13 -49 81 -116 177
-133 189 -20 14 -19 15 20 32 74 33 100 116 59 184 -32 51 -70 62 -225 62
l-135 0 0 -240z m285 155 c30 -29 32 -64 6 -96 -17 -22 -28 -24 -120 -27
l-101 -4 0 76 0 76 95 0 c88 0 98 -2 120 -25z"/>
<path d="M7620 1860 l0 -240 35 0 35 0 0 240 0 240 -35 0 -35 0 0 -240z"/>
<path d="M7750 2070 l0 -30 80 0 80 0 0 -210 0 -210 35 0 35 0 0 210 0 210 80
0 80 0 0 30 0 30 -195 0 -195 0 0 -30z"/>
<path d="M8187 1878 c-48 -123 -89 -231 -93 -241 -6 -16 -2 -18 31 -15 37 3
38 4 64 76 l26 72 100 0 100 0 26 -72 c26 -72 27 -73 64 -76 33 -3 37 -1 31
15 -4 10 -45 118 -93 241 l-86 222 -42 0 -42 0 -86 -222z m163 67 c18 -49 35
-96 37 -102 4 -10 -14 -13 -72 -13 -58 0 -76 3 -72 13 2 6 19 53 38 104 18 51
34 91 35 90 1 -1 16 -42 34 -92z"/>
<path d="M9240 1860 l0 -240 35 0 35 0 0 178 0 177 118 -177 c117 -177 117
-178 155 -178 l37 0 0 240 0 240 -35 0 -35 0 0 -177 0 -178 -118 177 c-117
177 -117 178 -154 178 l-38 0 0 -240z"/>
<path d="M9730 1860 l0 -240 180 0 180 0 0 30 0 30 -145 0 -145 0 0 80 0 80
130 0 130 0 0 30 0 30 -130 0 -130 0 0 70 0 70 140 0 140 0 0 30 0 30 -175 0
-175 0 0 -240z"/>
<path d="M10700 1860 l0 -240 180 0 180 0 0 30 0 30 -145 0 -145 0 0 80 0 80
130 0 130 0 0 30 0 30 -130 0 -130 0 0 70 0 70 140 0 140 0 0 30 0 30 -175 0
-175 0 0 -240z"/>
<path d="M11150 1860 l0 -240 35 0 35 0 0 105 0 105 58 0 c35 0 66 -6 79 -15
12 -8 47 -55 78 -105 56 -89 57 -90 96 -90 30 0 38 3 33 13 -49 81 -116 177
-133 189 -20 14 -19 15 20 32 74 33 100 116 59 184 -32 51 -70 62 -225 62
l-135 0 0 -240z m285 155 c30 -29 32 -64 6 -96 -17 -22 -28 -24 -120 -27
l-101 -4 0 76 0 76 95 0 c88 0 98 -2 120 -25z"/>
<path d="M11650 1860 l0 -240 35 0 35 0 0 240 0 240 -35 0 -35 0 0 -240z"/>
<path d="M12460 1860 l0 -240 180 0 180 0 0 30 0 30 -145 0 -145 0 0 80 0 80
130 0 130 0 0 30 0 30 -130 0 -130 0 0 70 0 70 140 0 140 0 0 30 0 30 -175 0
-175 0 0 -240z"/>
<path d="M12900 1860 l0 -240 35 0 35 0 2 203 3 202 60 -202 59 -203 41 0 41
0 59 203 60 202 3 -202 2 -203 35 0 35 0 0 240 0 241 -57 -3 -58 -3 -60 -203
c-56 -188 -61 -201 -69 -170 -6 18 -33 110 -61 203 l-51 170 -57 3 -57 3 0
-241z"/>
<path d="M13507 1878 c-48 -123 -89 -231 -93 -241 -6 -16 -2 -18 31 -15 37 3
38 4 64 76 l26 72 100 0 100 0 26 -72 c26 -72 27 -73 64 -76 33 -3 37 -1 31
15 -4 10 -45 118 -93 241 l-86 222 -42 0 -42 0 -86 -222z m163 67 c18 -49 35
-96 37 -102 4 -10 -14 -13 -72 -13 -58 0 -76 3 -72 13 2 6 19 53 38 104 18 51
34 91 35 90 1 -1 16 -42 34 -92z"/>
<path d="M13920 1860 l0 -240 35 0 35 0 0 105 0 105 58 0 c35 0 66 -6 79 -15
12 -8 47 -55 78 -105 56 -89 57 -90 96 -90 30 0 38 3 33 13 -49 81 -116 177
-133 189 -20 14 -19 15 20 32 74 33 100 116 59 184 -32 51 -70 62 -225 62
l-135 0 0 -240z m285 155 c30 -29 32 -64 6 -96 -17 -22 -28 -24 -120 -27
l-101 -4 0 76 0 76 95 0 c88 0 98 -2 120 -25z"/>
<path d="M14447 1878 c-48 -123 -89 -231 -93 -241 -6 -16 -2 -18 31 -15 37 3
38 4 64 76 l26 72 100 0 100 0 26 -72 c26 -72 27 -73 64 -76 33 -3 37 -1 31
15 -4 10 -45 118 -93 241 l-86 222 -42 0 -42 0 -86 -222z m163 67 c18 -49 35
-96 37 -102 4 -10 -14 -13 -72 -13 -58 0 -76 3 -72 13 2 6 19 53 38 104 18 51
34 91 35 90 1 -1 16 -42 34 -92z"/>
<path d="M14860 1860 l0 -240 35 0 35 0 0 178 0 177 118 -177 c117 -177 117
-178 155 -178 l37 0 0 240 0 240 -35 0 -35 0 0 -177 0 -178 -118 177 c-117
177 -117 178 -154 178 l-38 0 0 -240z"/>
</g>
</svg>
