<?xml version="1.0" encoding="UTF-8"?>
<svg version="1.1" xmlns="http://www.w3.org/2000/svg" width="64" height="64">
<path d="M0 0 C17.16 0 34.32 0 52 0 C52 4.29 52 8.58 52 13 C50.30875 13.103125 48.6175 13.20625 46.875 13.3125 C40.84714485 13.87736961 36.89764538 14.94849149 32.6875 19.5 C30.09831947 23.335823 29.88432143 26.1673212 29.9375 30.6875 C29.94652344 31.68136719 29.95554687 32.67523438 29.96484375 33.69921875 C29.97644531 34.45847656 29.98804687 35.21773437 30 36 C26.04903022 36.04939662 22.0981797 36.08571755 18.14697266 36.10986328 C16.1408864 36.12488107 14.13488676 36.15028981 12.12890625 36.17578125 C10.87207031 36.18222656 9.61523438 36.18867187 8.3203125 36.1953125 C7.15773926 36.20578613 5.99516602 36.21625977 4.79736328 36.22705078 C2 36 2 36 0 34 C-0.17496218 31.41996628 -0.23176368 28.94603704 -0.1953125 26.3671875 C-0.19329834 25.70082275 -0.19128418 25.03445801 -0.18920898 24.34790039 C-0.17873888 21.85686365 -0.15081625 19.36592497 -0.125 16.875 C-0.08375 11.30625 -0.0425 5.7375 0 0 Z M12 8 C12 9.32 12 10.64 12 12 C13.65 11.67 15.3 11.34 17 11 C16.67 10.01 16.34 9.02 16 8 C14.68 8 13.36 8 12 8 Z M24 8 C24 9.32 24 10.64 24 12 C25.65 11.67 27.3 11.34 29 11 C28.67 10.01 28.34 9.02 28 8 C26.68 8 25.36 8 24 8 Z M12 16 C12 17.32 12 18.64 12 20 C13.65 19.67 15.3 19.34 17 19 C16.67 18.01 16.34 17.02 16 16 C14.68 16 13.36 16 12 16 Z M12 24 C12 25.32 12 26.64 12 28 C13.65 27.67 15.3 27.34 17 27 C16.67 26.01 16.34 25.02 16 24 C14.68 24 13.36 24 12 24 Z " fill="#000000" transform="translate(2,18)"/>
<path d="M0 0 C3.28636404 1.43778427 5.70241762 3.24290115 8 6 C9.72565655 11.17696965 9.87335275 16.76809853 7.875 21.875 C4.85190292 25.30117669 2.22526146 27.67904883 -2.4375 28.3515625 C-7.39431511 28.51383919 -11.0924861 28.3328795 -15 25 C-15.763125 24.360625 -16.52625 23.72125 -17.3125 23.0625 C-19.99716232 18.19033505 -19.97415094 13.42229604 -19 8 C-14.46519626 -0.14329086 -8.7533936 -0.72205996 0 0 Z M-6 7 C-7.33187793 8.11166864 -7.33187793 8.11166864 -7.1875 10.9375 C-7.33278733 14.10892859 -7.33278733 14.10892859 -5 16 C-1.91652174 16.16681109 -1.91652174 16.16681109 1 16 C1 14.68 1 13.36 1 12 C-0.32 12 -1.64 12 -3 12 C-3.33 10.35 -3.66 8.7 -4 7 C-4.66 7 -5.32 7 -6 7 Z " fill="#000000" transform="translate(53,34)"/>
<path d="M0 0 C1.32 0 2.64 0 4 0 C4 1.32 4 2.64 4 4 C7.96 4 11.92 4 16 4 C16 2.68 16 1.36 16 0 C17.32 0 18.64 0 20 0 C20 1.32 20 2.64 20 4 C23.96 4 27.92 4 32 4 C32 2.68 32 1.36 32 0 C33.32 0 34.64 0 36 0 C36 1.32 36 2.64 36 4 C36.94875 3.95875 37.8975 3.9175 38.875 3.875 C42 4 42 4 44 6 C44 7.98 44 9.96 44 12 C26.84 12 9.68 12 -8 12 C-8 6 -8 6 -6 4 C-2.875 3.875 -2.875 3.875 0 4 C0 2.68 0 1.36 0 0 Z " fill="#000000" transform="translate(10,2)"/>
</svg>
