<?xml version="1.0" encoding="UTF-8"?>
<svg version="1.1" xmlns="http://www.w3.org/2000/svg" width="64" height="64">
<path d="M0 0 C18.48 0 36.96 0 56 0 C56 3.63 56 7.26 56 11 C53.525 10.505 53.525 10.505 51 10 C45.00309104 9.50580148 40.11730357 9.46662372 35 13 C31.14190746 17.17091086 29.8578914 20.24627101 29.875 25.875 C29.87242188 26.71804687 29.86984375 27.56109375 29.8671875 28.4296875 C30.00218981 31.04237932 30.46271947 33.44378252 31 36 C26.90661348 36.04939115 22.81334202 36.08571501 18.71972656 36.10986328 C17.32679219 36.11992877 15.93387898 36.13358234 14.54101562 36.15087891 C12.5404564 36.1751022 10.53974385 36.18540814 8.5390625 36.1953125 C7.33459473 36.20578613 6.13012695 36.21625977 4.88916016 36.22705078 C2 36 2 36 0 34 C-0.17496218 31.41996628 -0.23176368 28.94603704 -0.1953125 26.3671875 C-0.19329834 25.70082275 -0.19128418 25.03445801 -0.18920898 24.34790039 C-0.17873888 21.85686365 -0.15081625 19.36592497 -0.125 16.875 C-0.08375 11.30625 -0.0425 5.7375 0 0 Z M10 10 C10 11.32 10 12.64 10 14 C12.64 14 15.28 14 18 14 C18 12.68 18 11.36 18 10 C15.36 10 12.72 10 10 10 Z M10 22 C10 23.32 10 24.64 10 26 C12.64 26 15.28 26 18 26 C18 24.68 18 23.36 18 22 C15.36 22 12.72 22 10 22 Z " fill="#000000" transform="translate(2,22)"/>
<path d="M0 0 C1.32 0 2.64 0 4 0 C4 1.32 4 2.64 4 4 C11.92 4 19.84 4 28 4 C28 2.68 28 1.36 28 0 C29.32 0 30.64 0 32 0 C32 1.32 32 2.64 32 4 C32.69867188 3.97679687 33.39734375 3.95359375 34.1171875 3.9296875 C35.48230469 3.90261719 35.48230469 3.90261719 36.875 3.875 C38.23238281 3.84019531 38.23238281 3.84019531 39.6171875 3.8046875 C42 4 42 4 44 6 C44 9.3 44 12.6 44 16 C25.52 16 7.04 16 -12 16 C-12 6 -12 6 -10 4 C-7.6171875 3.8046875 -7.6171875 3.8046875 -4.875 3.875 C-3.50988281 3.90207031 -3.50988281 3.90207031 -2.1171875 3.9296875 C-1.41851562 3.95289063 -0.71984375 3.97609375 0 4 C0 2.68 0 1.36 0 0 Z " fill="#000000" transform="translate(14,2)"/>
<path d="M0 0 C3.28636404 1.43778427 5.70241762 3.24290115 8 6 C9.72565655 11.17696965 9.87335275 16.76809853 7.875 21.875 C4.85190292 25.30117669 2.22526146 27.67904883 -2.4375 28.3515625 C-7.39431511 28.51383919 -11.0924861 28.3328795 -15 25 C-15.763125 24.360625 -16.52625 23.72125 -17.3125 23.0625 C-19.99716232 18.19033505 -19.97415094 13.42229604 -19 8 C-14.46519626 -0.14329086 -8.7533936 -0.72205996 0 0 Z M-7 6 C-7 7.98 -7 9.96 -7 12 C-8.98 12 -10.96 12 -13 12 C-13 13.32 -13 14.64 -13 16 C-11.02 16 -9.04 16 -7 16 C-7 17.98 -7 19.96 -7 22 C-5.68 22 -4.36 22 -3 22 C-3 20.02 -3 18.04 -3 16 C-1.02 16 0.96 16 3 16 C3 14.68 3 13.36 3 12 C1.02 12 -0.96 12 -3 12 C-3 10.02 -3 8.04 -3 6 C-4.32 6 -5.64 6 -7 6 Z " fill="#000000" transform="translate(53,34)"/>
</svg>
