<?xml version="1.0" standalone="no"?>
<!DOCTYPE svg PUBLIC "-//W3C//DTD SVG 20010904//EN"
 "http://www.w3.org/TR/2001/REC-SVG-20010904/DTD/svg10.dtd">
<svg version="1.0" xmlns="http://www.w3.org/2000/svg"
 width="64.000000pt" height="64.000000pt" viewBox="0 0 64.000000 64.000000"
 preserveAspectRatio="xMidYMid meet">

<g transform="translate(0.000000,64.000000) scale(0.100000,-0.100000)"
fill="#000000" stroke="none">
<path d="M273 575 c-62 -27 -89 -104 -58 -165 41 -79 169 -79 210 0 32 62 4
139 -60 166 -42 17 -51 17 -92 -1z"/>
<path d="M216 275 c-64 -23 -112 -80 -131 -157 -5 -19 -1 -32 14 -47 19 -19
33 -21 130 -21 l109 0 -11 29 c-22 58 38 125 93 104 25 -10 30 -8 51 20 l22
30 -22 18 c-48 39 -179 51 -255 24z"/>
<path d="M500 155 c-46 -60 -51 -63 -70 -40 -16 19 -46 19 -54 0 -7 -19 50
-85 74 -85 23 0 141 146 133 166 -11 28 -41 13 -83 -41z"/>
</g>
</svg>
