<?xml version="1.0" encoding="UTF-8"?>
<svg version="1.1" xmlns="http://www.w3.org/2000/svg" width="64" height="64">
<path d="M0 0 C3.59632059 1.34395372 4.04779004 1.43520374 7.875 0 C9.03 -0.556875 10.185 -1.11375 11.375 -1.6875 C16.958916 -2.59957339 21.59159556 -1.78870649 26.515625 0.96875 C30.62559883 3.93898319 33.76893948 7.49431843 35.375 12.3125 C35.59763605 14.34722439 35.73271829 16.39218706 35.8125 18.4375 C35.87308594 19.51257813 35.93367188 20.58765625 35.99609375 21.6953125 C34.32150375 31.44795614 25.68203966 38.56442013 18.94311523 45.30029297 C17.29610056 46.95396573 15.67465366 48.63034259 14.05273438 50.30859375 C13.00407302 51.36604201 11.95399333 52.42208604 10.90234375 53.4765625 C10.18183083 54.22941025 10.18183083 54.22941025 9.44676208 54.99746704 C7.28366374 57.11723392 5.97166226 58.28010205 2.89306641 58.44726562 C-0.51533798 56.91126954 -2.86400163 54.62653428 -5.44140625 51.9921875 C-5.97974594 51.45530304 -6.51808563 50.91841858 -7.07273865 50.36526489 C-8.20787729 49.22846942 -9.33808157 48.08672811 -10.46362305 46.94042969 C-12.17313885 45.20210318 -13.90037305 43.48304826 -15.63085938 41.765625 C-16.73548913 40.65475259 -17.83904028 39.54280639 -18.94140625 38.4296875 C-19.45192032 37.92210907 -19.96243439 37.41453064 -20.48841858 36.89157104 C-24.69362026 32.57618157 -28.20729252 28.10489095 -29.12109375 21.99609375 C-28.89824737 9.6504041 -28.89824737 9.6504041 -24.04296875 4.69921875 C-16.76357883 -1.94580168 -9.29467066 -3.67980135 0 0 Z " fill="#000000" transform="translate(28.625,3.6875)"/>
</svg>
