<?xml version="1.0" encoding="UTF-8"?>
<svg version="1.1" xmlns="http://www.w3.org/2000/svg" width="64" height="64">
<path d="M0 0 C1.10021484 0.30035156 2.20042969 0.60070312 3.33398438 0.91015625 C4.37748047 1.21308594 5.42097656 1.51601562 6.49609375 1.828125 C7.44540771 2.10043945 8.39472168 2.37275391 9.37280273 2.65332031 C11.5625 3.75 11.5625 3.75 12.36645508 5.60083008 C13.66587106 19.84585982 14.11367615 35.87486276 5.22265625 47.82421875 C-0.45561761 54.41101643 -7.61039089 59.80040476 -16.25 61.5 C-24.18964111 60.91363928 -31.60595923 55.02053195 -36.9375 49.5 C-44.55419214 40.23645551 -45.61291246 29.16945402 -45.5625 17.625 C-45.56636719 16.73167969 -45.57023437 15.83835937 -45.57421875 14.91796875 C-45.57292969 14.05558594 -45.57164063 13.19320313 -45.5703125 12.3046875 C-45.56862061 11.13655518 -45.56862061 11.13655518 -45.56689453 9.94482422 C-45.31978778 5.75333419 -45.31978778 5.75333419 -44.4375 3.75 C-42.24780273 2.65332031 -42.24780273 2.65332031 -39.37109375 1.828125 C-37.80584961 1.37373047 -37.80584961 1.37373047 -36.20898438 0.91015625 C-35.10876953 0.60980469 -34.00855469 0.30945313 -32.875 0 C-31.80185547 -0.31582031 -30.72871094 -0.63164063 -29.62304688 -0.95703125 C-18.37988982 -4.13788769 -11.17719165 -3.28938373 0 0 Z M-4.4375 15.75 C-8.7275 20.04 -13.0175 24.33 -17.4375 28.75 C-21.4375 26.75 -21.4375 26.75 -23.375 24.5625 C-25.31719466 22.43274223 -25.31719466 22.43274223 -28.125 22.875 C-30.60177096 23.51330851 -30.60177096 23.51330851 -31.4375 25.75 C-29.7165132 27.74170383 -27.98811848 29.72585874 -26.24609375 31.69921875 C-24.90043768 33.22507067 -23.57089624 34.7651644 -22.25 36.3125 C-20.57576097 37.98434209 -20.57576097 37.98434209 -18.56958008 37.5559082 C-14.26978621 35.93062256 -11.31570066 32.13940593 -8.125 28.9375 C-6.99481445 27.84985352 -6.99481445 27.84985352 -5.84179688 26.74023438 C-5.13474609 26.03576172 -4.42769531 25.33128906 -3.69921875 24.60546875 C-2.72408325 23.64096802 -2.72408325 23.64096802 -1.72924805 22.65698242 C-0.214503 20.83242874 -0.214503 20.83242874 -0.54614258 18.5715332 C-0.84029053 17.97042725 -1.13443848 17.36932129 -1.4375 16.75 C-2.4275 16.42 -3.4175 16.09 -4.4375 15.75 Z " fill="#000000" transform="translate(48.4375,3.25)"/>
</svg>
