<?xml version="1.0" encoding="UTF-8"?>
<svg version="1.1" xmlns="http://www.w3.org/2000/svg" width="64" height="64">
<path d="M0 0 C3.58598889 2.54054385 6.15992797 5.04327701 8.4921875 8.765625 C8.90210938 9.38695312 9.31203125 10.00828125 9.734375 10.6484375 C13.58244889 17.62804738 13.74273274 26.02607545 12.4921875 33.765625 C10.09120579 41.34186763 6.27912589 47.51322792 -0.5078125 51.765625 C-1.12914062 52.17554688 -1.75046875 52.58546875 -2.390625 53.0078125 C-9.37023488 56.85588639 -17.76826295 57.01617024 -25.5078125 55.765625 C-33.08405513 53.36464329 -39.25541542 49.55256339 -43.5078125 42.765625 C-43.91773438 42.14429688 -44.32765625 41.52296875 -44.75 40.8828125 C-48.59807389 33.90320262 -48.75835774 25.50517455 -47.5078125 17.765625 C-45.10683079 10.18938237 -41.29475089 4.01802208 -34.5078125 -0.234375 C-33.88648438 -0.64429688 -33.26515625 -1.05421875 -32.625 -1.4765625 C-22.455808 -7.08315125 -9.72162164 -5.63801363 0 0 Z M-18.5078125 12.765625 C-20.28459204 14.54240454 -19.5510175 17.42727532 -19.5703125 19.828125 C-19.89864321 25.16349907 -20.68330087 27.74403996 -24.5703125 31.453125 C-25.30378906 32.05511719 -26.03726562 32.65710938 -26.79296875 33.27734375 C-27.35886719 33.76847656 -27.92476562 34.25960937 -28.5078125 34.765625 C-28.5078125 35.425625 -28.5078125 36.085625 -28.5078125 36.765625 C-23.09185494 34.35577232 -18.84342403 30.65365951 -15.5078125 25.765625 C-14.77268381 21.64594409 -14.94133973 17.89877816 -15.5078125 13.765625 C-16.4978125 13.435625 -17.4878125 13.105625 -18.5078125 12.765625 Z " fill="#000000" transform="translate(49.5078125,6.234375)"/>
</svg>
